<?xml version="1.0" encoding="utf-8"?>
<svg viewBox="0 0 486.356 479.936" xmlns="http://www.w3.org/2000/svg" xmlns:bx="https://boxy-svg.com">
  <defs>
    <bx:grid x="0" y="0" width="100.803" height="100.803"/>
  </defs>
  <path style="fill: rgb(216, 216, 216); stroke: rgb(0, 0, 0);" d="M 252.168 248.154 L 201.606 348.957 L 302.409 348.957 L 252.168 248.154 Z" id="sym-wbr"/>
  <g id="sym-shy">
    <path d="M 40.49 201.605 L 60.313 201.605 L 60.313 403.212 L 40.49 403.212 L 40.49 201.605 Z" style="fill: rgb(216, 216, 216); stroke: rgb(0, 0, 0);"/>
    <path d="M 0 371.912 L 100.803 371.912 L 100.803 403.212 L 0 403.212 L 0 371.912 Z" style="fill: rgb(216, 216, 216); stroke: rgb(0, 0, 0);"/>
  </g>
  <path d="M1.50758,450l72.33505,-72.33505c-95.21717,-31.83749 -163.84263,-121.73705 -163.84263,-227.66495c0,-132.54834 107.45166,-240 240,-240c132.54834,0 240,107.45166 240,240c0,105.9279 -68.62546,195.82746 -163.84263,227.66495l72.33505,72.33505l-148.49242,148.49242z"></path>
</svg>